M48
;Layer_Color=9474304
;FILE_FORMAT=4:4
METRIC,LZ
;TYPE=PLATED
T1F00S00C0.3000
T4F00S00C0.7112
T5F00S00C0.8000
T6F00S00C1.0000
T7F00S00C1.0200
T8F00S00C1.2000
T9F00S00C1.5000
T10F00S00C2.0000
T11F00S00C3.5000
;TYPE=NON_PLATED
T12F00S00C3.1000
%
T01
X03992998Y007755
X03976498
X03984748Y00792
X04001248
X03968248
X03959998Y007755
X03943498
X03926998
X03910498
X03893998
X03877498
X03860998
X03844498
X03827998
X03811498
X03794998
X03778498
X03761998
X03745498
X03728998
X03712498
X03695998
X03679498
X03662998
X03646498
X03629998
X03613498
X03596998
X03580498
X03588748Y00792
X03605248
X03638248
X03654748
X03671248
X03687748
X03704248
X03753748
X03770248
X03786748
X03803248
X03819748
X03852748
X03869248
X03885748
X03902248
X03918748
X03935248
X03572249
X03555748
X03539248
X03522748
X03530999Y007755
X03547498
X03563998
X03514498
X03497998
X03481498
X03464998
X03448499
X03431998
X03415498
X03398998
X03382498
X03365999
X03349499
X03332998
X03316498
X03299998
X03283499
X03266999
X03250498
X03233998
X03217498
X03200999
X03184499
X03192748Y00792
X03209248
X03225749
X03242249
X03258748
X03275248
X03308249
X03324749
X03341248
X03357748
X03374248
X03423748
X03440248
X03456748
X03473248
X03489749
X03159749
X03143249
X03126749
X03110249
X03093748
X03101999Y007755
X03118499
X03134998
X03151498
X03167998
X03085499
X03068999
X03052498
X03035999
X03019499
X03002999
X02986499
X02969998
X02953499
X02936999
X02920499
X02903999
X02887499
X02870999
X02854499
X02837999
X02821499
X02804999
X02788499
X02796749Y00792
X02813249
X02829749
X02862749
X02879249
X02895749
X02912249
X02928749
X02945249
X02978249
X02994749
X03011248
X03027749
X03044249
X02780249
X02763749
X02771999Y007755
X02755499
X02738999
X02722499
X02705999
X02689499
X02672999
X02656499
X02639999
X02623499
X02606999
X02590499
X02573999
X02557499
X02540999
X02524499
X02507999
X02491499
X02474999
X02458499
X02441999
X02425499
X02408999
X02392499
X02384249Y00792
X02433749
X02450249
X02466749
X02483249
X02499749
X02532749
X02549249
X02565749
X02582249
X02598749
X02615249
X02648249
X02664749
X02681249
X02697749
X02714249
X02367749
X02351249
X02334749
X02318249
X02326499Y007755
X02342999
X02359499
X02375999
X02309999
X02293499
X02276999
X02260499
X02243999
X02227499
X02210999
X02194499
X02177999
X02161499
X02144999
X02128499
X02111999
X02095499
X02078999
X02062499
X02045999
X02029499
X02012999
X01996499
X02004749Y00792
X02021249
X02037749
X02054249
X02103749
X02120249
X02136749
X02153249
X02169749
X02202749
X02219249
X02235749
X02252249
X02268749
X02285249
X01988249
X01971749
X01979999Y007755
Y008085
X01971749Y00825
X01979999Y008415
X01963499
X01946999
X01930499
X01913999
X01922249Y00858
X01938749
X01955249
X01971749
X01979999Y008745
X01963499
X01946999
X01930499
X01913999
X01922249Y00891
X01938749
X01955249
X01971749
X01979999Y009075
X01963499
X01946999
X01930499
X01913999
X01922249Y00924
X01938749
X01955249
X01971749
X01979999Y009405
X01963499
X01946999
X01930499
X01913999
X01922249Y00957
X01938749
X01955249
X01971749
X01979999Y009735
X01963499
X01946999
X01930499
X01913999
X01922249Y00989999
X01938749
X01955249
X01971749
X01979999Y01006499
X01963499
X01946999
X01930499
X01913999
X01922249Y01022999
X01938749
X01955249
X01971749
X01963499Y010395
X01946999
X01930499
X01913999
X01922249Y01056
X01938749
X01955249
X01963499Y01072499
X01979999
Y01105499
X01963499
X01946999
X01930499
X01913999
X01922249Y01122
X01938749
X01955249
X01963499Y011385
X01979999
X01946999
X01930499
X01913999
X01922249Y01154999
X01938749
X01955249
X01963499Y01171499
X01946999
X01930499
X01913999
X01922249Y01187999
X01938749
X01955249
X01971749
X01955249Y01088999
X01938749
X01922249
X01930499Y01072499
X01946999
X01913999
X01988249Y01088999
X02012999Y01072499
X02021249Y01056
X02012999Y010395
X01996499
X02021249Y01022999
X02054249
X02070749
X02062499Y010395
X02045999
X02054249Y01056
X02070749
X02078999Y01072499
X02095499
Y01105499
X02062499
X02045999
X02054249Y01122
X02062499Y011385
X02045999
X02054249Y01154999
X02070749
X02087249
X02095499Y01171499
X02078999
X02062499
X02045999
X02054249Y01187999
X02070749
X02103749
X02120249
X02128499Y01171499
X02161499
X02177999
X02194499
X02186249Y01187999
X02169749
X02153249
X02161499Y011385
X02169749Y01122
X02153249
X02161499Y01105499
Y01072499
X02177999
X02169749Y01056
X02153249
X02161499Y010395
X02177999
X02186249Y01022999
X02169749
X02153249
X02161499Y01006499
X02169749Y00989999
X02153249
X02161499Y009735
X02153249Y00957
X02161499Y009405
X02153249Y00924
X02161499Y009075
X02128499
X02111999
X02120249Y00924
X02103749
X02111999Y009405
X02128499
X02120249Y00957
X02103749
X02087249
X02095499Y009735
X02128499
Y01006499
X02095499
Y010395
X02111999
X02120249Y01056
Y01088999
X02062499Y01072499
X02045999
Y01006499
X02062499
X02054249Y00989999
X02062499Y009735
X02045999
X02054249Y00957
X02045999Y009405
X02054249Y00924
X02045999Y009075
X02054249Y00891
Y00858
X02045999Y008415
X02029499
X02012999
X01996499
X02004749Y00858
X01988249
X01996499Y008745
X02004749Y00891
X01988249
X01996499Y009075
X02012999
X02021249Y00924
X02004749
X01988249
X01996499Y009405
X02012999
X02021249Y00957
X02004749
X01988249
Y00989999
X02021249
Y01122
Y01154999
X02004749
X01988249
X01996499Y01171499
X02012999
X02021249Y01187999
X02004749
X02219249
X02235749
X02227499Y01171499
X02235749Y01154999
X02219249
X02186249
X02268749
X02285249
X02301749
X02293499Y01171499
X02276999
X02260499
X02268749Y01187999
X02285249
X02301749
X02334749
X02342999Y01171499
X02326499
X02367749Y01187999
X02359499Y011385
X02367749Y01122
X02351249
X02359499Y01105499
Y01072499
X02342999
X02351249Y01056
X02367749
X02359499Y010395
X02342999
X02326499
X02293499
X02276999
X02260499
X02268749Y01056
X02285249
X02293499Y01072499
X02309999
X02276999
X02260499
Y01105499
X02276999
X02285249Y01122
X02268749
X02276999Y011385
X02260499
X02227499Y01072499
X02235749Y01056
X02227499Y010395
X02210999
X02202749Y01056
X02235749Y01022999
X02268749
X02285249
X02301749
X02276999Y01006499
X02260499
X02268749Y00989999
X02285249
X02276999Y009735
X02260499
X02268749Y00957
X02285249
X02276999Y009405
X02260499
X02268749Y00924
X02276999Y009075
X02260499
X02268749Y00891
X02276999Y008745
X02268749Y00858
X02276999Y008415
X02260499
X02243999
X02227499
X02210999
X02219249Y00858
X02210999Y008745
X02219249Y00891
X02227499Y009075
X02210999
X02219249Y00924
X02235749
X02227499Y009405
X02210999
X02219249Y00957
X02235749
Y00989999
X02202749
Y00957
X02318249
X02334749
X02351249
X02367749
X02359499Y009735
X02367749Y00989999
X02351249
X02359499Y01006499
X02367749Y01022999
X02351249
X02318249Y00989999
X02326499Y009405
X02342999
X02359499
X02367749Y00924
X02351249
X02334749
X02342999Y009075
X02359499
X02326499
X02334749Y00891
X02326499Y008745
X02334749Y00858
X02342999Y008415
X02359499
X02375999
X02367749Y00825
X02351249
X02334749
X02318249
X02326499Y008415
X02309999
X02326499Y008085
X02342999
X02359499
X02375999
X02260499
X02243999
X02227499
X02210999
X02219249Y00825
X02235749
X02252249
X02268749
X02153249
X02136749
X02120249
X02103749
X02111999Y008415
X02128499
X02144999
X02161499
Y008085
X02144999
X02128499
X02111999
X02095499Y008415
X02103749Y00858
X02120249
X02111999Y008745
X02120249Y00891
X02103749
X02054249Y00825
X02037749
X02021249
X02004749
X01988249
X01996499Y008085
X02012999
X02029499
X02045999
X02384249Y00825
Y00858
X02433749
X02450249
X02458499Y008415
X02474999
X02491499
X02499749Y00825
X02483249
X02466749
X02450249
X02433749
X02441999Y008415
X02425499
X02441999Y008745
X02450249Y00891
X02433749
X02441999Y009075
X02458499
X02450249Y00924
X02433749
X02441999Y009405
X02458499
X02450249Y00957
X02433749
X02425499Y009735
X02458499
X02491499
X02499749Y00989999
X02483249
X02491499Y01006499
X02499749Y01022999
X02516249
X02532749
X02565749
X02557499Y010395
X02565749Y01056
X02598749
X02615249
X02623499Y01072499
X02639999
X02648249Y01056
X02656499Y010395
X02623499
X02606999
X02590499
X02598749Y01022999
X02615249
X02606999Y01006499
X02590499
X02598749Y00989999
X02615249
X02606999Y009735
X02590499
X02598749Y00957
X02606999Y009405
X02590499
X02598749Y00924
X02606999Y009075
X02590499
X02598749Y00891
X02606999Y008745
X02598749Y00858
X02606999Y008415
X02590499
X02573999
X02557499
X02540999
X02549249Y00858
Y00891
X02557499Y009075
X02565749Y00924
X02549249
X02557499Y009405
X02565749Y00957
X02549249
X02565749Y00989999
X02532749
X02499749Y00957
X02483249
X02491499Y009405
X02499749Y00924
X02483249
X02491499Y009075
Y008085
X02474999
X02458499
X02441999
X02557499
X02573999
X02590499
X02598749Y00825
X02582249
X02565749
X02549249
X02639999Y008415
X02656499
X02672999
X02689499
X02705999
X02714249Y00858
Y00891
X02705999Y009075
X02714249Y00924
X02705999Y009405
X02714249Y00957
X02722499Y009735
X02705999
X02714249Y00989999
X02722499Y01006499
X02705999
X02714249Y01022999
X02730749
X02722499Y010395
X02705999
X02714249Y01056
X02730749
X02738999Y01072499
X02755499
Y01105499
Y011385
Y01171499
X02738999
X02722499
X02705999
X02714249Y01187999
X02730749
X02763749
X02730749Y01154999
X02714249
X02722499Y011385
X02705999
X02714249Y01122
X02722499Y01105499
X02705999
Y01072499
X02722499
X02681249Y01056
Y01022999
Y00989999
Y00957
X02664749
X02648249
X02656499Y009405
X02672999
X02681249Y00924
X02664749
X02672999Y009075
X02656499
X02664749Y00891
X02656499Y008745
X02664749Y00858
Y00825
X02681249
X02697749
X02714249
X02705999Y008085
X02689499
X02672999
X02656499
X02771999
X02763749Y00825
X02771999Y008415
X02755499
X02763749Y00858
X02771999Y008745
X02763749Y00891
X02771999Y009075
X02763749Y00924
X02771999Y009405
X02763749Y00957
X02747249
X02755499Y009735
Y01006499
Y010395
X02771999
X02648249Y00989999
X02606999Y01072499
X02590499
Y01105499
X02606999
X02615249Y01122
X02598749
X02606999Y011385
Y01171499
X02623499
X02639999
X02648249Y01154999
X02631749
Y01187999
X02615249
X02598749
X02565749
X02549249
X02557499Y01171499
X02524499
X02507999
X02491499
X02499749Y01187999
X02516249
Y01154999
X02499749
X02483249
X02491499Y011385
X02499749Y01122
X02483249
X02491499Y01105499
Y01072499
X02507999
X02499749Y01056
X02483249
X02491499Y010395
X02507999
X02483249Y01022999
X02450249
X02458499Y010395
X02441999
X02450249Y01056
X02458499Y01072499
Y01105499
Y011385
X02450249Y01154999
X02433749
X02417249
X02400749
X02408999Y01171499
X02392499
X02400749Y01187999
X02433749
X02450249
X02458499Y01171499
X02441999
X02483249Y01187999
X02540999Y01072499
X02425499
X02392499
X02400749Y01056
X02392499Y010395
X02400749Y01022999
X02417249
X02425499Y01006499
X02458499
X02392499
Y009735
X02400749Y00957
X02392499Y01105499
X0268108Y01154999
X02672999Y01171499
X0268108Y01187999
X02664749
X02780249
X02813249
X02829749
X02846249
X02854499Y01171499
X02837999
X02821499
Y011385
X02829749Y01122
X02813249
X02821499Y01105499
Y01072499
X02837999
X02829749Y01056
X02813249
X02821499Y010395
X02837999
X02846249Y01022999
X02862749
X02895749
X02887499Y010395
X02895749Y01056
X02928749
X02945249
X02953499Y01072499
X02969998
X03002999
X03011248Y01056
X03002999Y010395
X02986499
X02953499
X02936999
X02920499
X02928749Y01022999
X02945249
X02961749
X02936999Y01006499
X02920499
X02928749Y00989999
X02945249
X02936999Y009735
X02920499
X02928749Y00957
X02936999Y009405
X02920499
X02928749Y00924
X02936999Y009075
X02920499
X02928749Y00891
X02936999Y008745
X02928749Y00858
X02936999Y008415
X02920499
X02903999
X02887499
X02870999
X02879249Y00858
X02870999Y008745
X02879249Y00891
X02887499Y009075
X02870999
X02879249Y00924
X02895749
X02887499Y009405
X02870999
X02879249Y00957
X02895749
Y00989999
X02862749
Y00957
X02813249
X02821499Y009735
X02829749Y00989999
X02813249
X02821499Y01006499
X02829749Y01022999
X02813249
X02788499Y01006499
Y009735
X02780249Y00957
X02788499Y009405
X02780249Y00924
X02788499Y009075
X02780249Y00891
Y00858
X02788499Y008415
X02804999
X02821499
X02829749Y00825
X02813249
X02796749
X02780249
X02788499Y008085
X02804999
X02821499
X02887499
X02903999
X02920499
X02928749Y00825
X02912249
X02895749
X02879249
X02969998Y008415
X02986499
X03002999
X03019499
X03035999
X03044249Y00858
Y00891
X03035999Y009075
X03044249Y00924
X03035999Y009405
X03044249Y00957
X03052498Y009735
X03035999
X03044249Y00989999
X03052498Y01006499
X03035999
X03044249Y01022999
X03060749
X03077249
X03085499Y01006499
X03118499
X03110249Y01022999
X03118499Y010395
X03101999
X03110249Y01056
X03118499Y01072499
X03151498
X03167998
X03159749Y01056
X03143249
X03151498Y010395
X03167998
X03159749Y01022999
X03143249
X03151498Y01006499
X03159749Y00989999
X03143249
X03151498Y009735
X03143249Y00957
X03151498Y009405
X03143249Y00924
X03151498Y009075
X03118499
X03101999
X03110249Y00924
X03093748
X03101999Y009405
X03118499
X03110249Y00957
X03093748
X03077249
X03085499Y009735
X03118499
X03110249Y00891
X03093748
X03101999Y008745
X03110249Y00858
X03093748
X03101999Y008415
X03118499
X03134998
X03151498
X03159749Y00825
X03143249
X03126749
X03110249
X03093748
X03101999Y008085
X03118499
X03134998
X03151498
X03085499Y008415
X03044249Y00825
X03027749
X03011248
X02994749
X03002999Y008085
X03019499
X03035999
X02986499
X02994749Y00858
X02986499Y008745
X02994749Y00891
X03002999Y009075
X02986499
X02994749Y00924
X03011248
X03002999Y009405
X02986499
X02994749Y00957
X03011248
Y00989999
Y01022999
X03035999Y010395
X03052498
X03060749Y01056
X03044249
X03052498Y01072499
X03035999
Y01105499
X03052498
X03044249Y01122
X03035999Y011385
Y01171499
X03052498
X03068999
X03077249Y01154999
X03093748
X03110249
X03118499Y01171499
X03101999
X03110249Y01187999
X03093748
X03060749
X03044249
X03060749Y01154999
X03118499Y011385
X03151498
X03159749Y01154999
X03143249
X03151498Y01171499
X03167998
X03159749Y01187999
X03143249
Y01122
X03159749
X03151498Y01105499
X03118499
X03085499Y01072499
X03011248Y01122
X03002999Y01171499
X02986499
X02994749Y01187999
X02961749
X02945249
X02928749
X02936999Y01171499
X02953499
X02961749Y01154999
X02945249
X02928749
X02936999Y011385
X02920499
X02928749Y01122
X02945249
X02936999Y01105499
X02920499
Y01072499
X02936999
X02870999
X02879249Y01154999
X02895749
X02887499Y01171499
X02895749Y01187999
X02879249
X02920499Y01171499
X02846249Y01154999
X02780249Y01056
X02821499Y009405
X02813249Y00924
X02821499Y009075
X02978249Y00957
Y00989999
X03192748
X03225749
X03242249
X03250498Y01006499
X03233998
X03242249Y01022999
X03225749
X03233998Y010395
X03250498
X03242249Y01056
X03225749
X03233998Y01072499
X03250498
X03283499
X03299998
X03332998
X03341248Y01056
X03332998Y010395
X03316498
X03283499
X03291748Y01022999
X03275248
Y01056
Y01122
X03242249
X03250498Y011385
X03233998
Y01105499
X03250498
Y01171499
X03283499
X03291748Y01187999
X03275248
X03324749
X03341248
X03332998Y01171499
X03316498
X03324749Y01154999
X03341248
X03374248
X03390748
X03398998Y01171499
X03382498
X03365999
X03374248Y01187999
X03390748
X03423748
X03440248
X03431998Y01171499
X03481498
X03497998
X03514498
X03506248Y01187999
X03489749
X03473248
X03481498Y011385
X03489749Y01122
X03473248
X03481498Y01105499
Y01072499
X03497998
X03489749Y01056
X03473248
X03481498Y010395
X03497998
X03506248Y01022999
X03522748
X03530999Y010395
X03547498
X03555748Y01056
Y01022999
Y00989999
Y00957
X03539248
X03522748
Y00989999
X03489749
X03473248
X03481498Y01006499
X03489749Y01022999
X03473248
X03440248
X03448499Y010395
X03431998
X03440248Y01056
X03448499Y01072499
X03440248Y01088999
X03448499Y01105499
Y011385
X03382498
X03365999
X03374248Y01122
X03382498Y01105499
X03365999
Y01072499
X03382498
X03390748Y01056
X03374248
X03382498Y010395
X03365999
X03374248Y01022999
X03390748
X03407249
X03415498Y01006499
X03448499
Y009735
X03440248Y00957
X03423748
X03407249
X03415498Y009735
X03382498
X03365999
X03374248Y00989999
X03382498Y01006499
X03365999
X03341248Y01022999
Y00989999
Y00957
X03324749
X03308249
X03316498Y009405
X03332998
X03341248Y00924
X03324749
X03332998Y009075
X03316498
X03324749Y00891
X03316498Y008745
X03324749Y00858
X03332998Y008415
X03349499
X03365999
X03374248Y00858
Y00891
X03365999Y009075
X03374248Y00924
X03365999Y009405
X03374248Y00957
X03431998Y009405
X03448499
X03440248Y00924
X03423748
X03431998Y009075
X03448499
X03440248Y00891
X03423748
X03431998Y008745
X03440248Y00858
X03423748
X03431998Y008415
X03448499
X03464998
X03481498
X03473248Y00825
X03456748
X03440248
X03423748
X03431998Y008085
X03448499
X03464998
X03481498
X03547498
X03563998
X03555748Y00825
X03539248
X03547498Y008415
X03563998
X03530999
X03539248Y00858
Y00891
X03547498Y009075
X03555748Y00924
X03539248
X03547498Y009405
X03481498
X03489749Y00957
X03473248
X03481498Y009735
X03473248Y00924
X03481498Y009075
X03415498Y008415
X03374248Y00825
X03357748
X03341248
X03324749
X03308249
X03316498Y008415
X03299998
X03316498Y008085
X03332998
X03349499
X03365999
X03250498
X03233998
X03217498
X03225749Y00825
X03242249
X03258748
X03250498Y008415
X03233998
X03217498
X03200999
X03209248Y00858
X03200999Y008745
X03209248Y00891
X03217498Y009075
X03233998
X03250498
X03242249Y00924
X03225749
X03209248
X03217498Y009405
X03233998
X03250498
X03242249Y00957
X03225749
X03209248
X03192748
X03200999Y009405
Y009075
X03209248Y00825
X03258748Y00858
X03250498Y009735
X03233998
X03275248Y00989999
X03308249
X03217498Y010395
X03192748Y01056
X03200999Y01072499
X03192748Y01022999
X03176248
Y01154999
X03184499Y01171499
X03176248Y01187999
X03209248
X03225749
X03217498Y01171499
X03291748Y01154999
X03341248Y01122
X03415498Y01072499
X03530999
X03522748Y01056
X03539248Y01154999
X03555748
X03547498Y01171499
X03555748Y01187999
X03539248
X03506248Y01154999
X03588748
X03605248
X03621748
X03613498Y01171499
X03596998
X03580498
X03588748Y01187999
X03605248
X03621748
X03654748
X03662998Y01171499
X03646498
X03695998
X03712498
X03728998
X03737248Y01154999
X03753748
X03770248
X03778498Y01171499
X03761998
X03770248Y01187999
X03753748
X03720748
X03704248
X03720748Y01154999
X03695998Y011385
X03704248Y01122
X03712498Y01105499
X03695998
Y01072499
X03712498
X03720748Y01056
X03704248
X03712498Y010395
X03695998
X03704248Y01022999
X03720748
X03737248
X03770248
X03778498Y010395
X03761998
X03770248Y01056
X03778498Y01072499
X03811498
X03827998
X03819748Y01056
X03803248
X03811498Y010395
X03827998
X03836248Y01022999
X03852748
X03885748
X03877498Y010395
X03885748Y01056
X03877498Y01072499
X03885748Y01088999
X03918748
X03935248
X03951748
X03968248
X03959998Y01072499
X03943498
X03926998
X03910498
X03918748Y01056
X03935248
X03951748
X03968248
X03959998Y010395
X03943498
X03926998
X03910498
X03918748Y01022999
X03935248
X03951748
X03968248
Y00989999
Y00957
Y00924
Y00891
Y00858
X03959998Y008415
X03968248Y00825
X03918748
X03902248
X03885748
X03869248
X03877498Y008415
X03893998
X03910498
X03918748Y00858
Y00891
X03910498Y009075
X03918748Y00924
X03910498Y009405
X03918748Y00957
X03926998Y009735
X03910498
X03918748Y00989999
X03926998Y01006499
X03910498
X03885748Y00989999
Y00957
X03869248
X03852748
X03860998Y009405
X03877498
X03885748Y00924
X03869248
X03877498Y009075
X03860998
X03869248Y00891
X03860998Y008745
X03869248Y00858
X03860998Y008415
X03844498
X03811498
X03794998
X03778498
X03761998
X03745498
X03753748Y00858
X03770248
X03761998Y008745
X03753748Y00891
X03761998Y009075
X03778498
X03770248Y00924
X03753748
X03761998Y009405
X03778498
X03770248Y00957
X03753748
X03737248
X03745498Y009735
X03778498
X03811498
X03819748Y00989999
X03803248
X03811498Y01006499
X03819748Y01022999
X03803248
X03778498Y01006499
X03712498
X03695998
X03704248Y00989999
X03712498Y009735
X03695998
X03704248Y00957
X03695998Y009405
X03704248Y00924
X03695998Y009075
X03704248Y00891
Y00858
X03695998Y008415
X03679498
X03662998
X03646498
X03654748Y00858
X03646498Y008745
X03654748Y00891
X03662998Y009075
X03646498
X03654748Y00924
X03671248
X03662998Y009405
X03646498
X03654748Y00957
X03671248
Y00989999
Y01022999
X03662998Y010395
X03646498
X03613498
X03596998
X03580498
X03588748Y01056
X03605248
X03613498Y01072499
X03629998
X03662998
X03671248Y01056
Y01122
X03605248
X03588748
X03596998Y011385
X03580498
Y01105499
X03596998
Y01072499
X03580498
X03588748Y01022999
X03605248
X03621748
X03596998Y01006499
X03580498
X03588748Y00989999
X03605248
X03596998Y009735
X03580498
X03588748Y00957
X03596998Y009405
X03580498
X03588748Y00924
X03596998Y009075
X03580498
X03588748Y00891
X03596998Y008745
X03588748Y00858
X03596998Y008415
X03580498
X03588748Y00825
X03572249
X03580498Y008085
X03646498
X03662998
X03679498
X03695998
X03704248Y00825
X03687748
X03671248
X03654748
X03638248
X03753748
X03770248
X03786748
X03803248
X03811498Y008085
X03794998
X03778498
X03761998
X03803248Y00858
X03811498Y008745
Y009075
X03803248Y00924
X03811498Y009405
X03803248Y00957
X03852748Y00989999
Y01056
X03811498Y01105499
X03819748Y01122
X03803248
X03811498Y011385
Y01171499
X03819748Y01187999
X03803248
X03844498Y01171499
X03836248Y01154999
X03877498Y01171499
X03885748Y01187999
X03869248
X03918748
X03935248
X03951748
X03968248
X03959998Y01171499
X03943498
X03926998
X03910498
Y011385
X03926998
X03935248Y01122
X03918748
X03926998Y01105499
X03910498
X03968248Y01122
Y01154999
X03951748
X03778498Y011385
Y01105499
X03745498Y01072499
X03638248Y00989999
Y00957
X03860998Y008085
X03877498
X03893998
X03910498
X03976498
X03992998
X04001248Y00825
X03984748
X03992998Y008415
X04009498
X04025998
X04042498
X04058998
X04050748Y00858
X04034248
X04017748
X04001248
X03984748
X03992998Y008745
X04009498
X04025998
X04042498
X04058998
X04050748Y00891
X04034248
X04017748
X04001248
X03984748
X03992998Y009075
X04009498
X04025998
X04042498
X04058998
X04050748Y00924
X04034248
X04017748
X04001248
X03984748
X03992998Y009405
X04009498
X04025998
X04042498
X04058998
X04050748Y00957
X04034248
X04017748
X04001248
X03984748
X03992998Y009735
X04009498
X04025998
X04042498
X04058998
X04050748Y00989999
X04034248
X04017748
X04001248
X03984748
X03992998Y01006499
X04009498
X04025998
X04042498
X04058998
X04050748Y01022999
X04034248
X04017748
X04001248
X03984748
X03992998Y010395
X04009498
X04025998
X04042498
X04058998
X04050748Y01056
X04034248
X04017748
X04001248
X03984748
X03992998Y01072499
X04009498
X04025998
X04042498
X04058998
X04050748Y01088999
X04034248
X04017748
X04001248
X03984748
X03992998Y01105499
X04009498
X04025998
X04042498
X04058998
X04050748Y01122
X04034248
X04017748
X04001248
X03984748
X03992998Y011385
X04009498
X04025998
X04042498
X04058998
X04050748Y01154999
X04034248
X04017748
X04001248
X03984748
X03992998Y01171499
X04009498
X04025998
X04042498
X04058998
X04050748Y01187999
X04034248
X04017748
X04001248
X03984748
X03976498Y01171499
Y011385
Y01105499
Y01072499
Y010395
Y01006499
Y009735
Y009405
Y009075
Y008745
Y008415
Y01204499
X03992998
X04009498
X04025998
X04042498
X04058998
X04050748Y01220999
X04034248
X04017748
X04001248
X03984748
X03992998Y01237499
X04009498
X04025998
X04042498
X04058998
X04050748Y01253999
X04034248
X04017748
X04001248
X03984748
X03992998Y01270499
X04009498
X04025998
X04042498
X04058998
X04050748Y01286999
X04034248
X04017748
X04001248
X03984748
X03992998Y01303499
X04009498
X04025998
X04042498
X04058998
X04050748Y01319999
X04034248
X04017748
X04001248
X03984748
X03992998Y01336499
X04009498
X04025998
X04042498
X04058998
X04050748Y01352999
X04034248
X04017748
X04001248
X03984748
X03992998Y01369499
X04009498
X04025998
X04042498
X04058998
X04050748Y01385999
X04034248
X04017748
X04001248
X03984748
X03992998Y01402499
X04009498
X04025998
X04042498
X04058998
X04050748Y01418999
X04034248
X04017748
X04001248
X03984748
X03992998Y01435499
X04009498
X04025998
X04042498
X04058998
X04050748Y01451999
X04034248
X04017748
X04001248
X03984748
X03992998Y01468499
X04009498
X04025998
X04042498
X04058998
X04050748Y01484999
X04034248
X04017748
X04001248
X03984748
X03992998Y01501499
X04009498
X04025998
X04042498
X04058998
X04050748Y01517999
X04034248
X04017748
X04001248
X03984748
X03992998Y01534499
X04009498
X04025998
X04042498
X04058998
X04050748Y01550999
X04034248
X04017748
X04001248
X03984748
X03992998Y01567499
X04009498
X04025998
X04042498
X04058998
X04050748Y01583999
X04034248
X04017748
X04001248
X03984748
X03976498Y01567499
Y01534499
Y01501499
Y01468499
Y01435499
Y01402499
Y01369499
Y01336499
Y01303499
Y01270499
Y01237499
X03959998
X03943498
X03926998
X03910498
X03918748Y01253999
X03935248
X03951748
X03968248
X03959998Y01270499
X03943498
X03926998
X03910498
X03918748Y01286999
X03935248
X03951748
X03968248
X03959998Y01303499
X03943498
X03926998
X03935248Y01319999
X03951748
X03968248
X03959998Y01336499
X03943498
X03926998
X03910498
X03893998
X03877498
X03885748Y01352999
X03902248
X03918748
X03935248
X03951748
X03968248
X03959998Y01369499
X03943498
X03926998
X03910498
X03893998
X03877498
X03885748Y01385999
X03902248
X03918748
X03935248
X03951748
X03968248
X03959998Y01402499
X03943498
X03926998
X03935248Y01418999
X03951748
X03968248
X03959998Y01435499
X03943498
X03926998
X03935248Y01451999
X03951748
X03968248
X03959998Y01468499
X03943498
X03926998
X03910498
X03893998
X03877498
X03860998
X03844498
X03827998
X03836248Y01484999
X03852748
X03869248
X03885748
X03902248
X03918748
X03935248
X03951748
X03968248
X03959998Y01501499
X03943498
X03926998
X03910498
X03893998
X03877498
X03860998
X03844498
X03827998
X03811498
X03819748Y01517999
X03836248
X03852748
X03869248
X03885748
X03902248
X03918748
X03935248
X03951748
X03968248
X03959998Y01534499
X03943498
X03926998
X03910498
X03893998
X03877498
X03860998
X03844498
X03827998
X03811498
X03819748Y01550999
X03836248
X03852748
X03869248
X03885748
X03902248
X03918748
X03935248
X03951748
X03968248
X03959998Y01567499
X03943498
X03926998
X03910498
X03893998
X03877498
X03860998
X03844498
X03827998
X03811498
X03794998
X03803248Y01550999
X03786748
Y01583999
X03819748
X03836248
X03852748
X03869248
X03885748
X03902248
X03918748
X03935248
X03951748
X03968248
X03918748Y01451999
X03902248
X03877498Y01435499
X03860998
X03852748Y01418999
X03885748
X03877498Y01402499
X03852748Y01385999
Y01352999
Y01319999
X03885748
X03877498Y01303499
X03918748Y01319999
Y01418999
X03819748Y01385999
X03827998Y01369499
X03778498
X03761998
X03770248Y01385999
X03761998Y01402499
Y01435499
X03770248Y01451999
X03786748Y01484999
Y01517999
X03761998Y01501499
X03728998
X03712498
X03720748Y01517999
X03737248
Y01484999
X03720748
X03704248Y01451999
X03679498Y01468499
X03662998
X03646498
X03629998
X03613498
X03621748Y01484999
X03638248
X03654748
X03671248
Y01517999
X03654748
X03638248
X03621748
X03605248
X03613498Y01534499
X03629998
X03646498
X03662998
X03679498
X03687748Y01550999
X03671248
X03654748
X03638248
X03621748
X03605248
X03588748
X03572249
X03580498Y01567499
X03596998
X03613498
X03629998
X03646498
X03662998
X03638248Y01583999
X03605248
X03588748
X03596998Y01534499
X03580498
X03572249Y01517999
Y01484999
X03580498Y01468499
X03572249Y01451999
X03605248Y01484999
X03646498Y01435499
X03662998
X03654748Y01418999
X03638248
X03646498Y01402499
X03662998
Y01369499
X03646498
X03654748Y01352999
X03671248
X03679498Y01336499
X03662998
X03646498
X03654748Y01319999
X03638248
Y01352999
X03613498Y01369499
Y01336499
X03621748Y01286999
X03629998Y01270499
X03613498
X03621748Y01253999
X03605248
X03588748
X03596998Y01237499
X03613498
X03629998
X03662998
X03654748Y01253999
Y01220999
X03662998Y01204499
X03695998
X03712498
X03728998
X03720748Y01220999
X03704248
X03712498Y01237499
X03728998
X03737248Y01253999
X03720748
X03704248
X03695998Y01270499
X03728998
X03737248Y01286999
X03728998Y01303499
X03761998
X03770248Y01319999
X03778498Y01336499
X03794998
X03803248Y01319999
X03811498Y01270499
Y01237499
X03827998
X03819748Y01220999
X03803248
X03811498Y01204499
X03827998
X03877498
X03885748Y01220999
X03877498Y01237499
X03885748Y01253999
X03852748
X03770248
X03778498Y01237499
X03761998
X03770248Y01220999
X03778498Y01204499
X03761998
Y01270499
Y01336499
X03770248Y01352999
X03737248
X03720748
X03728998Y01369499
Y01336499
X03712498
X03695998Y01369499
X03704248Y01385999
X03695998Y01303499
X03662998
X03695998Y01237499
X03605248Y01220999
X03588748
X03596998Y01204499
X03613498
X03580498
Y01237499
Y01270499
X03918748Y01220999
X03935248
X03951748
X03968248
X03959998Y01204499
X03943498
X03926998
X03910498
X03753748Y01550999
X03761998Y01567499
X03745498
X03737248Y01583999
X03712498Y01534499
X03563998
X03547498
X03530999
X03539248Y01550999
X03555748
X03563998Y01567499
X03547498
X03530999
X03514498
X03497998
X03506248Y01583999
X03489749
X03456748
Y01550999
X03473248
X03481498Y01534499
X03464998
X03448499
X03431998
X03415498
X03398998
X03382498
X03390748Y01550999
X03407249
X03423748
X03440248
Y01517999
X03423748
X03407249
X03390748
X03341248
X03324749
X03308249
X03316498Y01534499
X03332998
X03349499
X03357748Y01550999
X03341248
X03324749
X03308249
X03291748
X03275248
X03272Y0156
X03252
X03234
X03217
X032
X03182
X03176248Y01517999
X03192748
X03209248
X03225749
X03233998Y01501499
X03217498
X03200999
X03184499
X03192748Y01484999
X03209248
X03225749
X03242249
X03275248
X03291748
X03316498Y01501499
X03299998Y01534499
X03283499
X03266999Y01501499
X03217498Y01435499
X03200999
X03225749Y01418999
X03209248Y01385999
X03200999Y01369499
X03209248Y01352999
X03225749
X03233998Y01369499
Y01336499
X03217498
X03200999
X03209248Y01319999
X03176248
Y01352999
Y01385999
Y01418999
X03324749
X03332998Y01402499
Y01369499
X03349499
X03324749Y01352999
X03332998Y01336499
X03324749Y01319999
X03332998Y01303499
X03365999
X03398998
X03407249Y01286999
X03415498Y01270499
X03423748Y01253999
X03440248
X03473248
X03489749
X03506248
X03522748
X03539248
X03555748
X03547498Y01270499
X03539248Y01286999
X03522748
X03514498Y01303499
X03522748Y01319999
X03539248
X03555748
X03563998Y01336499
X03547498
X03555748Y01352999
X03539248
X03522748
X03506248
X03514498Y01369499
X03497998
X03506248Y01385999
X03489749
X03464998Y01369499
X03448499
X03440248Y01352999
X03423748
X03415498Y01369499
Y01402499
X03423748Y01418999
X03440248
X03415498Y01435499
X03365999
Y01336499
X03382498
X03390748Y01352999
X03415498Y01336499
X03423748Y01319999
X03440248
X03448499Y01336499
X03464998
X03497998
X03514498
X03506248Y01319999
X03547498Y01303499
Y01369499
X03563998
X03547498Y01435499
X03555748Y01451999
X03539248
X03547498Y01468499
X03563998
X03555748Y01484999
X03539248
X03522748
X03506248
X03514498Y01468499
X03530999
X03538Y01509
X03547
X03519
X03508
X03494
X03475392Y01509286
X03456748Y01484999
X03506248Y01550999
X03522748
X03539248Y01583999
X03555748
X03407249
X03357748
X03283499Y01369499
X03291748Y01352999
X03299998Y01336499
X03283499
X03291748Y01286999
X03299998Y01270499
X03283499
X03291748Y01253999
X03275248
X03283499Y01237499
X03299998
X03332998
X03341248Y01253999
X03324749
Y01220999
X03341248
X03332998Y01204499
X03365999
X03382498
X03398998
X03390748Y01220999
X03374248
X03382498Y01237499
X03398998
X03415498
X03407249Y01253999
X03365999Y01270499
Y01237499
X03440248Y01220999
X03431998Y01204499
X03481498
X03497998
X03506248Y01220999
X03489749
X03473248
X03481498Y01237499
X03497998
X03514498
X03547498
X03555748Y01220999
X03539248
X03547498Y01204499
X03514498Y01270499
X03481498
X03506248Y01418999
X03522748
X03275248Y01220999
X03283499Y01204499
X03250498
Y01237499
X03217498
X03225749Y01253999
X03209248
X03192748
X03176248
X03184499Y01270499
X03192748Y01286999
X03184499Y01237499
X03176248Y01220999
X03209248
X03225749
X03217498Y01204499
X03167998
X03151498
X03159749Y01220999
X03143249
X03151498Y01237499
X03167998
X03159749Y01253999
X03143249
X03151498Y01270499
X03101999
X03085499
X03068999
X03077249Y01286999
X03093748
X03110249
X03101999Y01303499
X03085499
X03068999
X03077249Y01319999
X03093748
X03110249
X03118499Y01336499
X03101999
X03085499
X03093748Y01352999
X03085499Y01369499
Y01402499
X03093748Y01451999
X03126749
X03143249Y01418999
X03159749Y01385999
X03167998Y01369499
X03052498
X03060749Y01352999
X03052498Y01336499
X03011248Y01352999
X02994749
X02978249
X02986499Y01336499
X02994749Y01319999
X02978249
X03002999Y01303499
X02994749Y01253999
X03002999Y01237499
X02994749Y01220999
X03002999Y01204499
X03035999
X03052498
X03068999
X03060749Y01220999
X03044249
X03052498Y01237499
X03035999
X03044249Y01253999
X03077249
X03093748
X03110249
X03118499Y01237499
X03101999
X03110249Y01220999
X03118499Y01204499
X03101999
X02953499
X02936999
X02920499
X02928749Y01220999
X02945249
X02953499Y01237499
X02969998
X02961749Y01253999
Y01286999
X02928749
X02920499Y01270499
Y01237499
X02936999
X02887499
X02895749Y01220999
X02879249
X02887499Y01204499
X02837999
X02821499
X02829749Y01220999
X02846249
X02854499Y01237499
X02837999
X02821499
X02829749Y01253999
X02846249
X02862749
X02854499Y01270499
X02821499
X02813249Y01286999
Y01253999
Y01220999
X02780249
Y01253999
Y01286999
X02788499Y01336499
X02804999
X02837999
X02854499
X02862749Y01319999
X02895749
X02903999Y01336499
X02846249Y01352999
Y01385999
Y01418999
X02862749
X02895749
X02928749
X02978249
X02994749
X03002999Y01435499
X02986499
Y01402499
X03002999
X03019499Y01369499
Y01501499
X03011248Y01517999
X02994749
X02978249
X02961749
X02945249
X02969998Y01534499
X02986499
X03002999
X02994749Y01550999
X02978249
X02928749
X02912249
X02895749
X02879249
X02864Y01555
X02895749Y01517999
X02870999Y01468499
X02846249Y01484999
X02788499Y01468499
X02796749Y01451999
X02780249Y01418999
X02788499Y01369499
X02804999
X02780249Y01352999
X02796749Y01517999
X02804999Y01534499
X02788499
X02796749Y01583999
X02780249
X03103Y0156
X03118
X03133
X0315
X03166
X03159749Y01517999
X03167998Y01501499
X03151498
X03085499
X02763749Y01484999
X02747249
X02730749
X02714249
X02697749
X02681249
X02664749
X02672999Y01468499
X02689499
X02681249Y01451999
X02664749
X02672999Y01435499
X02656499
X02664749Y01418999
X02672999Y01402499
X02656499
Y01369499
X02672999
X02681249Y01352999
X02664749
X02672999Y01336499
X02689499
X02722499
X02730749Y01352999
X02763749
X02771999Y01369499
X02755499
Y01402499
X02771999
X02763749Y01418999
X02771999Y01435499
X02755499
Y01468499
X02771999
X02738999
X02722499
X02730749Y01517999
X02747249
X02738999Y01534499
X02722499
X02730749Y01550999
X02747249
X02714249
X02697749
X02664749
X02648249
X02631749
X02615249Y01517999
Y01484999
X02606999Y01468499
X02615249Y01451999
X02582249
X02573999Y01468499
X02557499
X02540999
X02524499
X02549249Y01484999
X02565749
X02582249
X02557499Y01435499
X02540999
X02549249Y01418999
X02565749
X02557499Y01402499
X02540999
Y01369499
X02557499
X02573999
X02565749Y01352999
X02549249
X02557499Y01336499
X02573999
X02565749Y01319999
X02549249
X02557499Y01303499
X02540999Y01336499
X02507999
X02516249Y01352999
X02507999Y01369499
X02491499
X02458499Y01336499
X02450249Y01319999
X02441999Y01303499
Y01270499
X02450249Y01253999
X02458499Y01237499
X02441999
X02450249Y01220999
X02458499Y01204499
X02441999
X02408999
X02392499
X02400749Y01220999
X02408999Y01237499
X02392499
X02400749Y01253999
X02417249
X02408999Y01270499
X02417249Y01286999
X02408999Y01303499
Y01336499
X02392499
Y01369499
X02450249Y01418999
X02516249
Y01319999
X02540999Y01270499
X02549249Y01253999
X02565749
X02557499Y01237499
X02540999
X02524499
X02507999
X02491499
X02499749Y01220999
X02516249
X02507999Y01204499
X02491499
X02483249Y01220999
X02491499Y01270499
X02532749Y01253999
X02549249Y01220999
X02557499Y01204499
X02606999
X02623499
X02615249Y01220999
X02598749
X02606999Y01237499
X02623499
X02639999
X02631749Y01253999
X0268108
X02672999Y01270499
X02664749Y01286999
X02672999Y01303499
X02656499
X02664749Y01319999
X02656499Y01336499
X02598749Y01352999
Y01319999
X02705999Y01303499
Y01270499
X02714249Y01253999
X02730749
X02747249
X02763749
X02771999Y01237499
X02755499
X02738999
X02722499
X02705999
Y01204499
X02722499
X02738999
X02771999
X02755499Y01270499
X02738999
X02747249Y01286999
X02763749Y01319999
X02771999Y01336499
X02755499
X02705999Y01369499
X02714249Y01385999
X02656499Y01468499
X02664749Y01517999
X02681249
X02466749
X02450249
X02433749
X02417249
X02400749
X02408999Y01501499
X02425499
X02441999
X02433749Y01484999
X02417249
X02400749
X02392499Y01501499
Y01534499
X02423103Y0155425
X02437Y01554
X0245
X02464
X02479
X02496
X02491499Y01567499
X02507999
X02474999
X02458499
X02441999
X02425499
X02672999Y01237499
X0268108Y01220999
X02664749
X02672999Y01204499
X02367749Y01220999
Y01253999
X02334749
X02342999Y01237499
X02334749Y01220999
X02342999Y01204499
X02293499
X02276999
X02260499
X02268749Y01220999
X02285249
X02293499Y01237499
X02309999
X02301749Y01253999
X02285249
X02268749
X02276999Y01237499
X02260499
X02227499
X02235749Y01253999
X02219249
X02202749
X02194499Y01237499
X02177999
X02186249Y01220999
X02169749
X02177999Y01204499
X02161499
X02128499
X02111999
X02120249Y01220999
X02095499Y01237499
X02078999
X02062499
X02045999
X02054249Y01220999
X02070749
X02078999Y01204499
X02062499
X02045999
X02012999
X02021249Y01220999
X02004749
Y01253999
X01988249
X01996499Y01270499
X02012999
X02004749Y01286999
X01988249
X01996499Y01303499
X02012999
X02004749Y01319999
X01988249
X01996499Y01336499
X02012999
X02029499
X02021249Y01352999
X02004749
X01988249
X01996499Y01369499
X02012999
X02045999
X02054249Y01385999
X02070749Y01352999
X02062499Y01336499
X02095499
X02111999
X02128499
X02120249Y01352999
X02103749
X02111999Y01369499
X02128499
X02161499
X02169749Y01385999
X02194499Y01402499
X02227499
X02235749Y01418999
Y01451999
X02252249
X02243999Y01468499
X02227499
X02235749Y01484999
X02252249
X02243999Y01501499
X02194499
X02177999
X02186249Y01484999
X02169749
X02177999Y01468499
X02194499
X02186249Y01451999
X02169749
X02136749
X02144999Y01468499
X02128499
X02111999
X02095499
X02078999
X02062499
X02070749Y01484999
X02087249
X02103749
X02120249
X02136749
X02144999Y01501499
X02128499
X02111999
X02095499
X02078999
X02062499
X02054249Y01484999
X02037749
X02021249
X02004749
X01988249
X01996499Y01501499
X02012999
X02029499
X02021249Y01517999
X02004749
X01988249
X01996499Y01534499
X02012999
X02029499
X02045999
X02062499
X02054249Y01550999
X02037749
X02021249
X02004749
X01988249
X01996499Y01567499
X02012999
X02029499
X02045999
X02062499
X02054249Y01583999
X02037749
X02021249
X02004749
X01988249
X02103749
X02095499Y01567499
Y01534499
X02136749Y01550999
X02153249
X02169749
X02186249
X02194499Y01567499
X02177999
X02161499
X02144999
X02153249Y01583999
X02169749
X02136749
X02219249
X02235749
X02252249
X02268749
X02276999Y01567499
X02293499
X02301749Y01583999
X02318249Y01550999
X02334749
X02359499Y01534499
X02351249Y01517999
X02359499Y01501499
X02342999
X02318249Y01484999
X02301749
X02285249
X02293499Y01468499
X02309999
X02276999
X02268749Y01550999
X02235749
X02219249
X02227499Y01567499
X02243999
X02227499Y01369499
X02210999
X02194499
X02202749Y01352999
X02219249
X02235749
X02210999Y01336499
X02194499
X02177999
X02186249Y01352999
Y01319999
X02202749
X02219249Y01286999
X02235749
X02227499Y01270499
X02235749Y01220999
X02227499Y01204499
X02309999Y01270499
X02301749Y01286999
X02342999Y01303499
X02334749Y01319999
X02342999Y01336499
X02359499
X02375999Y01303499
X02342999Y01369499
X02326499
X02334749Y01385999
X02351249
X02342999Y01402499
X02318249Y01385999
Y01352999
X02285249
X02293499Y01336499
X02276999
X02153249Y01319999
X02103749
X02078999Y01303499
X02087249Y01286999
X02095499Y01270499
X02111999
X02078999
X02045999
Y01303499
X02095499Y01369499
Y01402499
X02111999
X02120249Y01418999
X02103749
X02111999Y01435499
X02095499
X02012999
X01996499
X02004749Y01451999
X02021249
X02029499Y01468499
X02012999
X01996499
X01988249Y01451999
Y01418999
X02004749
X02012999Y01402499
X01996499
X01979999
X01971749Y01418999
X01979999Y01435499
X01971749Y01451999
X01955249
X01963499Y01468499
X01979999
X01971749Y01484999
X01955249
X01963499Y01501499
X01979999
X01971749Y01517999
X01955249
X01963499Y01534499
X01979999
X01971749Y01550999
X01955249
X01938749
X01922249
X01930499Y01567499
X01946999
X01963499
X01979999
X01971749Y01583999
X01955249
X01938749
X01922249
X01913999Y01567499
Y01534499
X01930499
X01946999
Y01501499
Y01468499
X01913999
X01922249Y01484999
X01913999Y01501499
X01922249Y01451999
X01913999Y01435499
X01922249Y01418999
X01913999Y01402499
X01922249Y01385999
X01913999Y01369499
Y01336499
X01930499
X01938749Y01319999
X01922249
X01930499Y01303499
X01913999
X01922249Y01286999
X01930499Y01270499
X01913999
X01922249Y01253999
X01938749
X01955249
X01971749
X01979999Y01270499
X01963499
X01971749Y01286999
X01979999Y01303499
X01971749Y01319999
X01979999Y01336499
X01963499
X01971749Y01352999
X01979999Y01369499
X01963499
Y01237499
X01979999
X01946999
X01930499
X01913999
X01922249Y01220999
X01938749
X01955249
X01963499Y01204499
X01946999
X01930499
X01913999
Y01600499
X01930499
X01946999
X01963499
X01979999
X01971749Y01616999
X01955249
X01938749
X01922249
X01930499Y01633499
X01946999
X01963499
X01979999
X01971749Y01649999
X01955249
X01938749
X01922249
X01930499Y01666499
X01946999
X01963499
X01979999
X01971749Y01682999
X01955249
X01938749
X01922249
X01930499Y01699499
X01946999
X01963499
X01979999
X01971749Y01715999
X01955249
X01938749
X01922249
X01930499Y01732499
X01946999
X01963499
X01979999
X01971749Y01748999
X01955249
X01938749
X01922249
X01913999Y01732499
Y01699499
Y01666499
Y01633499
X01963499Y01765499
X01979999
X01971749Y01781999
X01979999Y01798499
X01971749Y01814999
X01988249
X02004749
X02021249
X02037749
X02054249
X02070749
X02087249
X02103749
X02120249
X02136749
X02153249
X02169749
X02186249
X02202749
X02219249
X02235749
X02252249
X02268749
X02285249
X02301749
X02318249
X02334749
X02351249
X02367749
X02375999Y01798499
X02359499
X02342999
X02326499
X02309999
X02293499
X02276999
X02260499
X02243999
X02227499
X02210999
X02194499
X02177999
X02161499
X02144999
X02128499
X02111999
X02095499
X02078999
X02062499
X02045999
X02029499
X02012999
X01996499
X02004749Y01781999
X02021249
X02037749
X02054249
X02070749
X02087249
X02103749
X02120249
X02136749
X02153249
X02169749
X02186249
X02194499Y01765499
X02177999
X02161499
X02169749Y01748999
X02186249
X02194499Y01732499
X02177999
X02161499
X02144999
X02128499
X02111999
X02095499
X02103749Y01748999
X02120249
X02136749
X02153249
Y01715999
X02169749
X02186249
X02194499Y01699499
X02177999
X02161499
X02169749Y01682999
X02186249
X02194499Y01666499
X02177999
X02161499
X02144999
X02153249Y01682999
X02136749
Y01715999
X02120249
X02103749
X02095499Y01699499
X02078999
X02062499
X02045999
X02029499
X02012999
X01996499
X02004749Y01715999
X02021249
X02037749
X02054249
X02062499Y01732499
X02045999
X02029499
X02012999
X01996499
X02004749Y01748999
X02021249
X02037749
X02054249
X02062499Y01765499
X02078999
X02095499
X02045999
X02029499
X02012999
X01996499
X01988249Y01781999
Y01748999
Y01715999
Y01682999
X02004749
X02021249
X02037749
X02054249
X02070749
X02087249
X02103749
X02111999Y01666499
X02095499
X02078999
X02062499
X02045999
X02029499
X02012999
X01996499
X02004749Y01649999
X02021249
X02037749
X02054249
X02070749
X02087249
X02103749
X02095499Y01633499
X02062499
X02045999
X02029499
X02012999
X01996499
X02004749Y01616999
X02021249
X02037749
X02054249
X02062499Y01600499
X02045999
X02029499
X02012999
X01996499
X01988249Y01616999
Y01649999
X02136749
X02153249
X02169749
X02186249
X02194499Y01633499
X02227499
X02243999
X02260499
X02276999
X02293499
X02309999
X02301749Y01649999
X02285249
X02268749
X02252249
X02235749
X02219249
X02227499Y01666499
X02243999
X02260499
X02276999
X02293499
X02309999
X02326499
X02334749Y01682999
X02351249
X02367749
X02375999Y01699499
X02359499
X02342999
X02326499
X02309999
X02293499
X02276999
X02260499
X02243999
X02227499
X02235749Y01715999
X02252249
X02268749
X02285249
X02301749
X02318249
X02334749
X02351249
X02367749
Y01748999
X02351249
X02334749
X02318249
X02326499Y01765499
X02342999
X02359499
X02375999
X02309999
X02293499
Y01732499
X02276999
X02260499
X02243999
X02227499
X02235749Y01748999
X02252249
X02268749
X02260499Y01765499
X02243999
X02227499
X02219249Y01748999
Y01715999
Y01682999
X02235749
X02252249
X02268749
X02285249
X02301749
X02318249
X0235Y01641
X02358Y01638
X02371
X02375999Y01600499
X02326499
X02309999
X02301749Y01616999
X02285249
X02268749
X02252249
X02235749
X02243999Y01600499
X02260499
X02276999
X02227499
X02177999
X02161499
X02144999
X02128499
X02136749Y01616999
X02144999Y01633499
X02417249Y01649999
X02433749
X02466749
X02483249
X02474999Y01633499
X02458499
X02466749Y01616999
X02450249
Y01682999
X02466749
X02458499Y01699499
X02441999
X02425499
X02433749Y01715999
X02450249
X02441999Y01732499
X02433749Y01748999
X02417249
X02400749
X02384249
X02392499Y01765499
X02408999
X02425499
X02441999
Y01798499
X02458499
X02474999
X02491499
X02507999
X02524499
X02540999
X02557499
X02573999
X02590499
X02606999
X02623499
X02639999
X02656499
X02672999
X02689499
X02705999
X02722499
X02738999
X02755499
X02771999
X02763749Y01814999
X02747249
X02730749
X02714249
X02697749
X02681249
X02664749
X02648249
X02631749
X02615249
X02598749
X02582249
X02565749
X02549249
X02532749
X02516249
X02499749
X02483249
X02466749
X02450249
X02433749
X02417249
X02400749
X02384249
X02392499Y01798499
X02408999
X02425499
X02433749Y01682999
X02417249
X02384249Y01715999
X02532749
X02540999Y01732499
X02549249Y01748999
X02532749
X02540999Y01765499
X02557499
X02590499
X02606999
X02623499
X02639999
X02656499
X02672999
X02689499
X02705999
X02681249Y01748999
X02689499Y01732499
X02639999
X02623499
X02631749Y01649999
X02648249
X02697749
X02714249
X02730749
X02738999Y01666499
X02722499
X02771999
X02730749Y01616999
X02598749Y01649999
X02582249
X02524499Y01633499
X02516249Y01682999
X02499749
X02524499Y01765499
X02804999
X02821499
X02837999
X02854499
X02870999
X02887499
X02903999
X02920499
X02912249Y01748999
X02895749
X02879249
X02862749
X02846249
X02829749
X02813249
X02821499Y01798499
X02837999
X02854499
X02870999
X02887499
X02903999
X02920499
X02912249Y01814999
X02895749
X02879249
X02862749
X02846249
X02829749
X02813249
X02796749
X02780249
X02788499Y01798499
X02804999
Y01666499
X02813249Y01649999
X02829749
X02862749
X02870999Y01633499
X02903999
X02920499
X02936999
X02953499
X02961749Y01649999
X02945249
X02928749
X02912249
X02895749
Y01616999
X02912249
X02928749
X02945249
X02961749
X02978249
X02986499Y01600499
X02969998
X02953499
X02936999
X02920499
X02903999
X02887499
X02870999
X02984Y01665
X03005Y01662
X03003Y01654
X03012
X0302
X03029Y01653
X03093748Y01649999
X03101999Y01633499
X03110249Y01616999
X03126749
Y01649999
X03143249
X03159749
X03167998Y01666499
X03151498
X03134998
X03118499
Y01732499
X03134998
X03151498
X03167998
X03159749Y01748999
X03143249
X03126749
X03110249
X03093748
X03077249
X03060749
X03044249
X03027749
X03011248
X03019499Y01765499
X03035999
X03052498
X03068999
X03085499
X03101999
X03118499
X03134998
X03151498
X03167998
X03159749Y01781999
X03143249
X03126749
X03110249
X03093748
X03077249
X03060749
X03044249
X03027749
X03011248
X02994749
X03011248Y01814999
X03027749
X03044249
X03060749
X03077249
X03093748
X03110249
X03126749
X03143249
X03159749
X03101999Y01732499
X03085499
X03068999
X03052498
X03035999
X03019499
X03002999
X02986499
X02978249Y01748999
X02961749Y01814999
X03167998Y01633499
X03184499
X03200999
X03217498
X03233998
X03250498
X03266999
X03283499
X03299998
X03316498
X03332998
X03349499
X03365999
X03382498
X03398998
X03415498
X03390748Y01649999
X03374248
X03357748
X03341248
X03324749
X03308249
X03291748
X03275248
X03258748
X03242249
X03225749
X03209248
X03192748
X03176248
X03184499Y01666499
X03200999
X03217498
X03233998
X03250498
X03266999
X03283499
X03299998
X03316498
X03332998
X03349499
X03365999
X03382498
X03423748Y01682999
X03440248
X03456748
X03473248
X03489749
X03506248
X03522748
X03539248
X03547498Y01666499
X03563998
X03555748Y01649999
X03539248
X03522748
X03506248
X03489749
X03473248
X03456748
X03464998Y01666499
X03481498
X03497998
X03514498
X03530999
Y01699499
X03514498
X03497998
X03481498
X03464998
X03448499
X03431998
X03415498
X03423748Y01715999
X03440248
X03456748
X03473248
X03489749
X03506248
X03497998Y01732499
X03481498
X03464998
X03448499
X03431998
X03415498
X03398998
X03382498
X03365999
X03349499
X03332998
X03316498
X03299998
X03283499
X03266999
X03250498
X03233998
X03217498
X03200999
X03184499
X03192748Y01748999
X03209248
X03225749
X03242249
X03258748
X03275248
X03291748
X03308249
X03324749
X03332998Y01765499
X03349499
X03365999
X03382498
X03398998
X03415498
X03431998
X03448499
X03464998
X03481498
X03497998
X03514498
X03530999
X03547498
X03563998
X03555748Y01781999
X03539248
X03522748
X03506248
X03489749
X03473248
X03456748
X03440248
X03423748
X03407249
X03390748
X03374248
X03357748
X03341248
X03324749
X03308249
X03291748
X03275248
X03258748
X03242249
X03225749
X03209248
X03192748
X03176248
X03184499Y01765499
X03200999
X03217498
X03233998
X03250498
X03266999
X03283499
X03299998
X03316498
X03324749Y01814999
X03341248
X03357748
X03374248
X03390748
X03407249
X03423748
X03440248
X03456748
X03473248
X03489749
X03506248
X03522748
X03539248
X03555748
X03563998Y01732499
X03547498
X03555748Y01715999
X03563998Y01633499
X03547498
X03530999
X03514498
X03497998
X03481498
X03448499Y01666499
X03407249Y01715999
X03390748
X03382498Y01600499
X03308249Y01814999
X03291748
X03275248
X03258748
X03242249
X03225749
X03209248
X03192748
X03176248
Y01748999
X03580498Y01765499
X03596998
X03613498
X03629998
X03646498
X03662998
X03679498
X03695998
X03712498
X03728998
X03745498
X03761998
X03753748Y01781999
X03737248
X03720748
X03704248
X03687748
X03671248
X03654748
X03638248
X03621748
X03605248
X03588748
X03572249
Y01814999
X03588748
X03605248
X03621748
X03638248
X03654748
X03671248
X03687748
X03704248
X03720748
X03737248
X03753748
X03770248
X03786748
X03803248
X03819748
X03836248
X03852748
X03869248
X03885748
X03902248
X03918748
X03935248
X03951748
X03968248
X03959998Y01798499
X03943498
X03926998
X03910498
X03893998
X03877498
X03860998
X03844498
X03827998
X03811498
X03794998
X03778498
X03786748Y01781999
X03803248
X03819748
X03836248
X03852748
X03869248
X03885748
X03902248
X03918748
X03935248
X03951748
X03968248
X03959998Y01765499
X03943498
X03926998
X03910498
X03893998
X03877498
X03860998
X03844498
X03827998
X03811498
Y01732499
X03827998
X03844498
X03860998
X03877498
X03893998
X03910498
X03926998
X03943498
X03959998
X03968248Y01748999
X03951748
X03935248
X03918748
X03902248
X03885748
X03869248
X03852748
Y01715999
X03869248
X03885748
X03902248
X03918748
X03935248
X03951748
X03968248
X03959998Y01699499
X03943498
X03926998
X03910498
X03893998
X03877498
X03860998
X03844498
X03827998
X03811498
X03794998
X03778498
X03761998
X03745498
X03728998
X03712498
X03695998
X03679498
X03662998
X03646498
X03629998
X03613498
X03596998
X03580498
X03588748Y01715999
X03605248
X03621748
X03638248
X03654748
X03671248
X03687748
X03704248
X03720748
X03737248
X03753748
X03770248
X03786748
X03803248
X03819748
X03836248
Y01682999
X03852748
X03869248
X03885748
X03902248
X03918748
X03935248
X03951748
X03968248
X03959998Y01666499
X03943498
X03926998
X03910498
X03893998
X03877498
X03860998
X03844498
X03827998
X03811498
X03794998
X03778498
X03761998
X03745498
X03728998
X03712498
X03695998
X03679498
X03662998
X03646498
X03629998
X03613498
X03621748Y01682999
X03638248
X03654748
X03671248
X03687748
X03704248
X03720748
X03737248
X03753748
X03770248
X03786748
X03803248
X03819748
Y01649999
X03836248
X03852748
X03869248
X03885748
X03902248
X03918748
X03935248
X03951748
X03968248
X03959998Y01633499
X03943498
X03926998
X03910498
X03893998
X03877498
X03860998
X03844498
X03827998
X03811498
X03794998
X03778498
X03761998
X03745498
X03728998
X03712498
X03695998
X03679498
X03662998
X03646498
X03654748Y01649999
X03671248
X03687748
X03704248
X03720748
X03737248
X03753748
X03770248
X03786748
X03803248
X03819748Y01616999
X03836248
X03852748
X03869248
X03885748
X03902248
X03918748
X03935248
X03951748
X03968248
X03959998Y01600499
X03943498
X03926998
X03910498
X03893998
X03877498
X03860998
X03844498
X03794998Y01732499
X03778498
X03761998
X03745498
X03728998
X03712498
X03695998
X03679498
X03662998
X03646498
X03629998
X03613498
X03596998
X03580498
X03572249Y01715999
X03588748Y01682999
X03605248
X03621748Y01649999
X03638248
X03596998Y01633499
X03580498
X03572249Y01649999
X03984748
X04001248
X04017748
X04034248
X04050748
X04058998Y01666499
X04042498
X04025998
X04009498
X03992998
X03976498
X03984748Y01682999
X04001248
X04017748
X04034248
X04050748
X04058998Y01699499
X04042498
X04025998
X04009498
X03992998
X03976498
X03984748Y01715999
X04001248
X04017748
X04034248
X04050748
X04058998Y01732499
X04042498
X04025998
X04009498
X03992998
X03976498
X03984748Y01748999
X04001248
X04017748
X04034248
X04050748
X03992998Y01765499
X03976498
X03984748Y01781999
X04001248
X03992998Y01798499
X03976498
X03984748Y01814999
X04001248
X04009498Y01633499
X04025998
X04042498
X04058998
X04050748Y01616999
X04034248
X04017748
X04001248
X03984748
X03992998Y01633499
X03976498
Y01600499
X03992998
X04009498
X04025998
X04042498
X04058998
T04
X02582Y01131
X02589Y0117
X02678034Y01087
X03825Y01167
X0382Y01487
X03776Y01473
X0373661
X03654Y01393
X03585189Y01387811
X0344339Y01392
X03419615Y01391
X0329561Y0137961
X03243786Y01386786
X0322Y01374
X0325453Y0133883
X03254473Y01477917
X033295Y0149439
X03473Y01479
X0311Y01494707
X0307
X03009
X02892Y01531
X02835Y01499
X02887Y01442
X02910498Y01371231
X02896069Y01352339
X02887Y013
Y01254
X02948473Y01377527
X0297789Y0137
X03122Y01365
X02805Y01387
X02555Y01385
X02465Y01386
X02446Y01392
X02417613Y01393
X02414Y01361
X02466Y01483
X02515Y01544
X0252Y01568
X02593Y01529
X02371Y0147639
X0235Y01477
X02376Y0134
X02267061Y01384919
X02246Y0138
X0214Y01388
X02152483Y01264753
X02153339Y01224321
X02209Y01508
Y01565
X02324178Y01646822
X02343178Y01665822
X02430625Y01623375
X02501Y01628
X02521Y0162
X02528672Y0165661
X02546Y0165539
X02571
X02536446Y01682197
X02505Y0165539
X02659Y01662
X02696
X02697Y0163
X02672Y0162861
X02656502Y0160939
X0274Y01605828
X02763433Y01599541
X02749Y01628
X02756Y01656
X02793
X02794Y0159961
X02819Y01604
X028415Y016045
X02885Y0162861
X02873Y01665
X02911
X02983Y01644
X03021718Y0167639
X03053468Y01644888
X03037Y01604
X0315Y01624
T05
X022324Y01781
X02288Y01782
T06
X020028Y009806
Y01006
X02079
Y009806
X021128Y00981
Y010064
X02189
Y00981
X022228
Y010064
X02299
Y00981
X023328
Y010064
Y01108
Y011334
X02299
Y01108
X022228
Y011334
X02189
Y01108
X021128
Y011334
X02079Y01133
Y011076
X020028
Y01133
X02409Y011334
Y01108
X024428
Y011334
X02519
Y01108
X025528
Y011334
X02629
Y01108
X026628
Y011334
X02739
Y01108
X027728
Y011334
Y010064
Y00981
X02739
Y010064
X026628
Y00981
X02629
Y010064
X025528
Y00981
X02519
Y010064
X024428
Y00981
X02409
Y010064
X02849
Y00981
X028828
Y010064
X02959
Y00981
X029928
Y010064
X03069
Y00981
X031028
Y010064
Y01108
Y011334
X03069
Y01108
X029928
Y011334
X02959
Y01108
X028828
Y011334
X02849
Y01108
X03179
Y011334
X032128
Y01108
X03289
Y011334
X033228
Y01108
X03399
Y011334
X034328
Y01108
X03509
Y011334
X035428
Y01108
Y010064
Y00981
X03509
Y010064
X034328
Y00981
X03399
Y010064
X033228
Y00981
X03289
Y010064
X032128
Y00981
X03179
Y010064
X03619
Y00981
X036528
Y010064
X03729
Y00981
X037608
Y010064
X03837
Y00981
X038708
Y010064
X03947
Y00981
Y01108
Y011334
X038708
Y01108
X03837
Y011334
X037608
Y01108
X03729
Y011334
X036528
Y01108
X03619
Y011334
X036028Y01282
Y013074
X03679
Y01282
X037128
Y013074
X03789
Y01282
X038228
Y013074
X03899
Y01282
Y01409
Y014344
X038228
Y01409
X03789
Y014344
X037128
Y01409
X03679
Y014344
X036028
Y01409
X03569Y01409
Y014344
X034928
Y01409
X03459Y01409
Y014344
X033828
Y01409
X03349
Y014344
X032728
Y01409
X03239
Y014344
Y013074
Y01282
X032728
Y013074
X03349
Y01282
X033828
Y013074
X03459
Y01282
X034928Y01282
Y013074
X03569
Y01282
X031628Y01282
Y013074
X03129
Y01282
X030528
Y013074
X03020191Y01307998
Y01282598
X02943991
Y01307998
X02909192
Y01282598
X02832992
Y01307998
X027982Y013074
Y01282
Y01409
Y014344
X02832992Y01434998
Y01409598
X02909192
Y01434998
X02943991
Y01409598
X03020191
Y01434998
X030528Y014344
Y01409
X03129
Y014344
X031628
Y01409
X02722
Y014344
X02689Y014344
Y01409
X026128
Y014344
X02579
Y01409
X025028
Y014344
X02469Y01434
Y014086
X023928
Y01434
Y01307
Y012816
X02469
Y01307
X025028Y013074
Y01282
X02579
Y013074
X026128
Y01282
X02689
Y013074
X02722Y013074
Y01282
X023592
Y013074
X02283
Y01282
X02251Y01282
Y013074
X021748
Y01282
X02139Y01282
Y013074
X020628
Y01282
X02029
Y013074
Y01409
Y014344
X020628
Y01409
X02139
Y014344
X021748Y014344
Y01409
X02251
Y014344
X02283Y014344
Y01409
X023592
Y014344
X019528
Y01409
Y013074
Y01282
X02207Y01781
X022626Y01782
T07
X03343951Y01595497
X03369351
X03394751
X0342015
X03445551
X03470951
X03496351
X0352175
X03547151
Y01747997
X0352175
X03496351
X03470951
X03445551
X0342015
X03394751
X03369351
X03343951
X03572551
X03597951
X03623351
X03648751
X03674151
X0369955
X03724951
X03750351
X03775751
X03801151
X03826551
Y01595497
X03801151
X03775751
X03750351
X03724951
X0369955
X03674151
X03648751
X03623351
X03597951
X03572551
T08
X025626Y017178
X025903
X02618
X026457
X026734
X0265955Y017462
X0263185
X0260415
X0257645
T09
X029396Y017606
X02965Y01786
X029904Y018114
Y017606
X029396Y018114
T10
X02079Y00812
X02188
X02299
X0225Y00876
X0236
X0213964
X0203
X0247
X0258
X0269
X0273844Y00812
X0262964
X0252011
X02409
X02849
X0295917
X030687
X0302Y00876
X0291
X028004
X0313
X0324
X0335
X0346
X035692
X0350861Y00812
X0339873
X03287
X03179
X03619
X03729
X03836Y00813
X03946
X03898Y00877
X03787Y00878
X0368Y00876
T11
X02493Y01732
X02743
T12
X04042Y00791
X01924Y0079
X01928Y01798
X04041Y01797
M30
