G04*
G04 #@! TF.GenerationSoftware,Altium Limited,Altium Designer,23.1.1 (15)*
G04*
G04 Layer_Color=8388736*
%FSLAX44Y44*%
%MOMM*%
G71*
G04*
G04 #@! TF.SameCoordinates,B1E2939E-79DA-41A2-B67C-80547D0CF300*
G04*
G04*
G04 #@! TF.FilePolarity,Negative*
G04*
G01*
G75*
%ADD18R,1.9532X4.7032*%
%ADD19R,0.7032X0.9032*%
%ADD20R,0.9032X0.7032*%
%ADD21R,1.2032X1.4532*%
%ADD22O,0.7300X1.9800*%
%ADD23R,1.4532X1.2032*%
%ADD24R,1.0532X0.7032*%
%ADD25R,0.7032X1.0532*%
%ADD26C,1.7272*%
%ADD27R,1.7272X1.7272*%
%ADD28R,2.0032X2.0032*%
%ADD29C,2.0032*%
G04:AMPARAMS|DCode=30|XSize=6.2032mm|YSize=6.2032mm|CornerRadius=0mm|HoleSize=0mm|Usage=FLASHONLY|Rotation=270.000|XOffset=0mm|YOffset=0mm|HoleType=Round|Shape=Octagon|*
%AMOCTAGOND30*
4,1,8,-1.5508,-3.1016,1.5508,-3.1016,3.1016,-1.5508,3.1016,1.5508,1.5508,3.1016,-1.5508,3.1016,-3.1016,1.5508,-3.1016,-1.5508,-1.5508,-3.1016,0.0*
%
%ADD30OCTAGOND30*%

%ADD31C,2.2032*%
G04:AMPARAMS|DCode=32|XSize=3.7032mm|YSize=1.4032mm|CornerRadius=0.4016mm|HoleSize=0mm|Usage=FLASHONLY|Rotation=0.000|XOffset=0mm|YOffset=0mm|HoleType=Round|Shape=RoundedRectangle|*
%AMROUNDEDRECTD32*
21,1,3.7032,0.6000,0,0,0.0*
21,1,2.9000,1.4032,0,0,0.0*
1,1,0.8032,1.4500,-0.3000*
1,1,0.8032,-1.4500,-0.3000*
1,1,0.8032,-1.4500,0.3000*
1,1,0.8032,1.4500,0.3000*
%
%ADD32ROUNDEDRECTD32*%
G04:AMPARAMS|DCode=33|XSize=3.9032mm|YSize=1.4032mm|CornerRadius=0.4016mm|HoleSize=0mm|Usage=FLASHONLY|Rotation=0.000|XOffset=0mm|YOffset=0mm|HoleType=Round|Shape=RoundedRectangle|*
%AMROUNDEDRECTD33*
21,1,3.9032,0.6000,0,0,0.0*
21,1,3.1000,1.4032,0,0,0.0*
1,1,0.8032,1.5500,-0.3000*
1,1,0.8032,-1.5500,-0.3000*
1,1,0.8032,-1.5500,0.3000*
1,1,0.8032,1.5500,0.3000*
%
%ADD33ROUNDEDRECTD33*%
G04:AMPARAMS|DCode=34|XSize=3.7032mm|YSize=1.4032mm|CornerRadius=0.4016mm|HoleSize=0mm|Usage=FLASHONLY|Rotation=90.000|XOffset=0mm|YOffset=0mm|HoleType=Round|Shape=RoundedRectangle|*
%AMROUNDEDRECTD34*
21,1,3.7032,0.6000,0,0,90.0*
21,1,2.9000,1.4032,0,0,90.0*
1,1,0.8032,0.3000,1.4500*
1,1,0.8032,0.3000,-1.4500*
1,1,0.8032,-0.3000,-1.4500*
1,1,0.8032,-0.3000,1.4500*
%
%ADD34ROUNDEDRECTD34*%
%ADD35C,2.4000*%
%ADD36C,3.7032*%
%ADD37R,2.2032X2.2032*%
%ADD38R,1.7032X1.7032*%
%ADD39O,2.0032X1.7032*%
%ADD40C,3.3032*%
%ADD41C,1.4732*%
D18*
X2118000Y1558000D02*
D03*
X2078000D02*
D03*
D19*
X2820500Y1514000D02*
D03*
X2807500D02*
D03*
X2814000Y1494000D02*
D03*
X2930000Y1514000D02*
D03*
X2917000D02*
D03*
X2923500Y1494000D02*
D03*
X3042000Y1514000D02*
D03*
X3029000D02*
D03*
X3035500Y1494000D02*
D03*
X3149500Y1514000D02*
D03*
X3136500D02*
D03*
X3143000Y1494000D02*
D03*
X3259500Y1514000D02*
D03*
X3246500D02*
D03*
X3253000Y1494000D02*
D03*
X2710665Y1514000D02*
D03*
X2697665D02*
D03*
X2704165Y1494000D02*
D03*
X2162000Y1514000D02*
D03*
X2149000D02*
D03*
X2155500Y1494000D02*
D03*
X2273500Y1514000D02*
D03*
X2260500D02*
D03*
X2267000Y1494000D02*
D03*
X2377500Y1514000D02*
D03*
X2364500D02*
D03*
X2371000Y1494000D02*
D03*
X2491500Y1514000D02*
D03*
X2478500D02*
D03*
X2485000Y1494000D02*
D03*
X2051500Y1514000D02*
D03*
X2038500D02*
D03*
X2045000Y1494000D02*
D03*
X3363000D02*
D03*
X3356500Y1514000D02*
D03*
X3369500D02*
D03*
X3694000Y1494000D02*
D03*
X3687500Y1514000D02*
D03*
X3700500D02*
D03*
X3855789Y1193000D02*
D03*
X3849290Y1213000D02*
D03*
X3862289D02*
D03*
X3801000Y1499000D02*
D03*
X3794500Y1519000D02*
D03*
X3807500D02*
D03*
X3745000Y1193000D02*
D03*
X3738500Y1213000D02*
D03*
X3751500D02*
D03*
X3194000Y1193000D02*
D03*
X3187500Y1213000D02*
D03*
X3200500D02*
D03*
X2975000Y1193000D02*
D03*
X2968500Y1213000D02*
D03*
X2981500D02*
D03*
X3085000Y1193000D02*
D03*
X3078500Y1213000D02*
D03*
X3091500D02*
D03*
X3305000Y1193000D02*
D03*
X3298500Y1213000D02*
D03*
X3311500D02*
D03*
X3525000Y1193000D02*
D03*
X3518500Y1213000D02*
D03*
X3531500D02*
D03*
X3414000Y1193000D02*
D03*
X3407500Y1213000D02*
D03*
X3420500D02*
D03*
X3635000Y1193000D02*
D03*
X3628500Y1213000D02*
D03*
X3641500D02*
D03*
X1985000Y1193000D02*
D03*
X1978500Y1213000D02*
D03*
X1991500D02*
D03*
X1933500Y1494000D02*
D03*
X1927000Y1514000D02*
D03*
X1940000D02*
D03*
X2315000Y1193000D02*
D03*
X2308500Y1213000D02*
D03*
X2321500D02*
D03*
X2534000Y1193000D02*
D03*
X2527500Y1213000D02*
D03*
X2540500D02*
D03*
X2871500D02*
D03*
X2865000Y1193000D02*
D03*
X2858500Y1213000D02*
D03*
X2645000Y1193000D02*
D03*
X2638500Y1213000D02*
D03*
X2651500D02*
D03*
X2755000Y1193000D02*
D03*
X2748500Y1213000D02*
D03*
X2761500D02*
D03*
X2425000Y1193000D02*
D03*
X2418500Y1213000D02*
D03*
X2431500D02*
D03*
X2205500Y1193000D02*
D03*
X2199000Y1213000D02*
D03*
X2212000D02*
D03*
X2095000Y1193000D02*
D03*
X2088500Y1213000D02*
D03*
X2101500D02*
D03*
X2595000Y1494000D02*
D03*
X2588500Y1514000D02*
D03*
X2601500D02*
D03*
D20*
X3590000Y1502000D02*
D03*
X3570000Y1495500D02*
D03*
Y1508500D02*
D03*
X3465000Y1507500D02*
D03*
Y1494500D02*
D03*
X3485000Y1501000D02*
D03*
D21*
X2383000Y1661000D02*
D03*
X2403000D02*
D03*
X3057713Y1668730D02*
D03*
X3077713D02*
D03*
X2208000Y1589000D02*
D03*
X2188000D02*
D03*
X2117000Y1598000D02*
D03*
X2097000D02*
D03*
X2845000Y1664000D02*
D03*
X2825000D02*
D03*
X2622000Y1662000D02*
D03*
X2602000D02*
D03*
D22*
X2326873Y1565750D02*
D03*
X2339573D02*
D03*
X2352273D02*
D03*
X2364973D02*
D03*
X2377673D02*
D03*
X2390373D02*
D03*
X2403073D02*
D03*
X2415773D02*
D03*
X2326873Y1623750D02*
D03*
X2339573D02*
D03*
X2352273D02*
D03*
X2364973D02*
D03*
X2377673D02*
D03*
X2390373D02*
D03*
X2403073D02*
D03*
X2415773D02*
D03*
X3002874Y1568750D02*
D03*
X3015573D02*
D03*
X3028273D02*
D03*
X3040974D02*
D03*
X3053673D02*
D03*
X3066373D02*
D03*
X3079073D02*
D03*
X3091773D02*
D03*
X3002874Y1626750D02*
D03*
X3015573D02*
D03*
X3028273D02*
D03*
X3040974D02*
D03*
X3053673D02*
D03*
X3066373D02*
D03*
X3079073D02*
D03*
X3091773D02*
D03*
X2857253D02*
D03*
X2844554D02*
D03*
X2831853D02*
D03*
X2819153D02*
D03*
X2806454D02*
D03*
X2793753D02*
D03*
X2781053D02*
D03*
X2768353D02*
D03*
X2857253Y1568750D02*
D03*
X2844554D02*
D03*
X2831853D02*
D03*
X2819153D02*
D03*
X2806454D02*
D03*
X2793753D02*
D03*
X2781053D02*
D03*
X2768353D02*
D03*
X2634773Y1625750D02*
D03*
X2622073D02*
D03*
X2609373D02*
D03*
X2596673D02*
D03*
X2583973D02*
D03*
X2571273D02*
D03*
X2558573D02*
D03*
X2545873D02*
D03*
X2634773Y1567750D02*
D03*
X2622073D02*
D03*
X2609373D02*
D03*
X2596673D02*
D03*
X2583973D02*
D03*
X2571273D02*
D03*
X2558573D02*
D03*
X2545873D02*
D03*
D23*
X2403000Y1706000D02*
D03*
Y1726000D02*
D03*
X2207000Y1706000D02*
D03*
Y1726000D02*
D03*
D24*
X3489000Y1360000D02*
D03*
X3463000D02*
D03*
X3759000Y1054000D02*
D03*
X3733000D02*
D03*
X3868000D02*
D03*
X3842000D02*
D03*
X3379000Y1360000D02*
D03*
X3353000D02*
D03*
X2719000D02*
D03*
X2693000D02*
D03*
X2331000Y1495000D02*
D03*
X2305000D02*
D03*
X3429000Y1054000D02*
D03*
X3403000D02*
D03*
X3538000D02*
D03*
X3512000D02*
D03*
X3648000D02*
D03*
X3622000D02*
D03*
X1956000Y1360000D02*
D03*
X1930000D02*
D03*
X2059000D02*
D03*
X2033000D02*
D03*
X2768000Y1054000D02*
D03*
X2742000D02*
D03*
X2880000D02*
D03*
X2854000D02*
D03*
X2988000D02*
D03*
X2962000D02*
D03*
X3098000D02*
D03*
X3072000D02*
D03*
X3208000D02*
D03*
X3182000D02*
D03*
X1998000D02*
D03*
X1972000D02*
D03*
X2109000D02*
D03*
X2083000D02*
D03*
X2217000D02*
D03*
X2191000D02*
D03*
X2328000D02*
D03*
X2302000D02*
D03*
X2438000D02*
D03*
X2412000D02*
D03*
X2549000D02*
D03*
X2523000D02*
D03*
X3318000D02*
D03*
X3292000D02*
D03*
X2659000D02*
D03*
X2633000D02*
D03*
X2170000Y1360000D02*
D03*
X2144000D02*
D03*
X2389000Y1361000D02*
D03*
X2363000D02*
D03*
X2498000Y1360000D02*
D03*
X2472000D02*
D03*
X2610000D02*
D03*
X2584000D02*
D03*
X2831000D02*
D03*
X2805000D02*
D03*
X3050000D02*
D03*
X3024000D02*
D03*
X3268000D02*
D03*
X3242000D02*
D03*
X3598000D02*
D03*
X3572000D02*
D03*
X3709000D02*
D03*
X3683000D02*
D03*
X3819000D02*
D03*
X3793000D02*
D03*
D25*
X3148000Y1371000D02*
D03*
Y1345000D02*
D03*
X2926000Y1372000D02*
D03*
Y1346000D02*
D03*
D26*
X3343951Y1595497D02*
D03*
Y1747997D02*
D03*
X3496351Y1595497D02*
D03*
X3394751D02*
D03*
X3369351D02*
D03*
X3470951D02*
D03*
X3420150D02*
D03*
X3623351D02*
D03*
X3597951D02*
D03*
X3572551D02*
D03*
X3547151D02*
D03*
X3521750D02*
D03*
X3445551D02*
D03*
X3648751D02*
D03*
X3674151D02*
D03*
X3775751D02*
D03*
X3750351D02*
D03*
X3699550D02*
D03*
X3724951D02*
D03*
X3801151D02*
D03*
Y1747997D02*
D03*
X3775751D02*
D03*
X3750351D02*
D03*
X3724951D02*
D03*
X3699550D02*
D03*
X3674151D02*
D03*
X3648751D02*
D03*
X3623351D02*
D03*
X3597951D02*
D03*
X3572551D02*
D03*
X3547151D02*
D03*
X3521750D02*
D03*
X3496351D02*
D03*
X3470951D02*
D03*
X3445551D02*
D03*
X3420150D02*
D03*
X3394751D02*
D03*
X3369351D02*
D03*
X3826551Y1595497D02*
D03*
D27*
Y1747997D02*
D03*
D28*
X2262600Y1782000D02*
D03*
X2207000Y1781000D02*
D03*
D29*
X2288000Y1782000D02*
D03*
X2232400Y1781000D02*
D03*
D30*
X2493000Y1732000D02*
D03*
X2743000D02*
D03*
D31*
X2659550Y1746200D02*
D03*
X2631850D02*
D03*
X2604150D02*
D03*
X2576450D02*
D03*
X2673400Y1717800D02*
D03*
X2645700D02*
D03*
X2618000D02*
D03*
X2590300D02*
D03*
X2562600D02*
D03*
X3239000Y1307400D02*
D03*
X3162800D02*
D03*
X3239000Y1282000D02*
D03*
X3162800D02*
D03*
X3239000Y1409000D02*
D03*
X3162800D02*
D03*
X3239000Y1434400D02*
D03*
X2689000Y1307400D02*
D03*
X2612800D02*
D03*
X2689000Y1282000D02*
D03*
X2612800D02*
D03*
X2689000Y1409000D02*
D03*
X2612800D02*
D03*
X2689000Y1434400D02*
D03*
X2251000D02*
D03*
X2174800Y1409000D02*
D03*
X2251000D02*
D03*
X2174800Y1282000D02*
D03*
X2251000D02*
D03*
X2174800Y1307400D02*
D03*
X2251000D02*
D03*
X3789000Y1434400D02*
D03*
X3712800Y1409000D02*
D03*
X3789000D02*
D03*
X3712800Y1282000D02*
D03*
X3789000D02*
D03*
X3712800Y1307400D02*
D03*
X3789000D02*
D03*
X3459000Y1434400D02*
D03*
X3382800Y1409000D02*
D03*
X3459000D02*
D03*
X3382800Y1282000D02*
D03*
X3459000D02*
D03*
X3382800Y1307400D02*
D03*
X3459000D02*
D03*
X3679000Y1434400D02*
D03*
X3602800Y1409000D02*
D03*
X3679000D02*
D03*
X3602800Y1282000D02*
D03*
X3679000D02*
D03*
X3602800Y1307400D02*
D03*
X3679000D02*
D03*
X3899000Y1434400D02*
D03*
X3822800Y1409000D02*
D03*
X3899000D02*
D03*
X3822800Y1282000D02*
D03*
X3899000D02*
D03*
X3822800Y1307400D02*
D03*
X3899000D02*
D03*
X3947000Y1133400D02*
D03*
X3870800Y1108000D02*
D03*
X3947000D02*
D03*
X3870800Y981000D02*
D03*
X3947000D02*
D03*
X3870800Y1006400D02*
D03*
X3947000D02*
D03*
X3837000Y1133400D02*
D03*
X3760800Y1108000D02*
D03*
X3837000D02*
D03*
X3760800Y981000D02*
D03*
X3837000D02*
D03*
X3760800Y1006400D02*
D03*
X3837000D02*
D03*
X2849000D02*
D03*
X2772800D02*
D03*
X2849000Y981000D02*
D03*
X2772800D02*
D03*
X2849000Y1108000D02*
D03*
X2772800D02*
D03*
X2849000Y1133400D02*
D03*
X2299000Y1006400D02*
D03*
X2222800D02*
D03*
X2299000Y981000D02*
D03*
X2222800D02*
D03*
X2299000Y1108000D02*
D03*
X2222800D02*
D03*
X2299000Y1133400D02*
D03*
X2959000Y1006400D02*
D03*
X2882800D02*
D03*
X2959000Y981000D02*
D03*
X2882800D02*
D03*
X2959000Y1108000D02*
D03*
X2882800D02*
D03*
X2959000Y1133400D02*
D03*
X2739000Y1006400D02*
D03*
X2662800D02*
D03*
X2739000Y981000D02*
D03*
X2662800D02*
D03*
X2739000Y1108000D02*
D03*
X2662800D02*
D03*
X2739000Y1133400D02*
D03*
X3399000Y1006400D02*
D03*
X3322800D02*
D03*
X3399000Y981000D02*
D03*
X3322800D02*
D03*
X3399000Y1108000D02*
D03*
X3322800D02*
D03*
X3399000Y1133400D02*
D03*
X2409000Y1006400D02*
D03*
X2332800D02*
D03*
X2409000Y981000D02*
D03*
X2332800D02*
D03*
X2409000Y1108000D02*
D03*
X2332800D02*
D03*
X2409000Y1133400D02*
D03*
X3069000Y1006400D02*
D03*
X2992800D02*
D03*
X3069000Y981000D02*
D03*
X2992800D02*
D03*
X3069000Y1108000D02*
D03*
X2992800D02*
D03*
X3069000Y1133400D02*
D03*
X3289000Y1006400D02*
D03*
X3212800D02*
D03*
X3289000Y981000D02*
D03*
X3212800D02*
D03*
X3289000Y1108000D02*
D03*
X3212800D02*
D03*
X3289000Y1133400D02*
D03*
X2189000Y1006400D02*
D03*
X2112800D02*
D03*
X2189000Y981000D02*
D03*
X2112800D02*
D03*
X2189000Y1108000D02*
D03*
X2112800D02*
D03*
X2189000Y1133400D02*
D03*
X3179000Y1006400D02*
D03*
X3102800D02*
D03*
X3179000Y981000D02*
D03*
X3102800D02*
D03*
X3179000Y1108000D02*
D03*
X3102800D02*
D03*
X3179000Y1133400D02*
D03*
X2629000Y1006400D02*
D03*
X2552800D02*
D03*
X2629000Y981000D02*
D03*
X2552800D02*
D03*
X2629000Y1108000D02*
D03*
X2552800D02*
D03*
X2629000Y1133400D02*
D03*
X2519000Y1006400D02*
D03*
X2442800D02*
D03*
X2519000Y981000D02*
D03*
X2442800D02*
D03*
X2519000Y1108000D02*
D03*
X2442800D02*
D03*
X2519000Y1133400D02*
D03*
X3619000D02*
D03*
X3542800Y1108000D02*
D03*
X3619000D02*
D03*
X3542800Y981000D02*
D03*
X3619000D02*
D03*
X3542800Y1006400D02*
D03*
X3619000D02*
D03*
X2079000Y1006000D02*
D03*
X2002800D02*
D03*
X2079000Y980600D02*
D03*
X2002800D02*
D03*
X2079000Y1107600D02*
D03*
X2002800D02*
D03*
X2079000Y1133000D02*
D03*
X3509000Y1006400D02*
D03*
X3432800D02*
D03*
X3509000Y981000D02*
D03*
X3432800D02*
D03*
X3509000Y1108000D02*
D03*
X3432800D02*
D03*
X3509000Y1133400D02*
D03*
X3729000D02*
D03*
X3652800Y1108000D02*
D03*
X3729000D02*
D03*
X3652800Y981000D02*
D03*
X3729000D02*
D03*
X3652800Y1006400D02*
D03*
X3729000D02*
D03*
X2359200Y1307400D02*
D03*
X2283000D02*
D03*
X2359200Y1282000D02*
D03*
X2283000D02*
D03*
X2359200Y1409000D02*
D03*
X2283000D02*
D03*
X2359200Y1434400D02*
D03*
X2798200Y1307400D02*
D03*
X2722000D02*
D03*
X2798200Y1282000D02*
D03*
X2722000D02*
D03*
X2798200Y1409000D02*
D03*
X2722000D02*
D03*
X2798200Y1434400D02*
D03*
X3349000D02*
D03*
X3272800Y1409000D02*
D03*
X3349000D02*
D03*
X3272800Y1282000D02*
D03*
X3349000D02*
D03*
X3272800Y1307400D02*
D03*
X3349000D02*
D03*
X2139000Y1434400D02*
D03*
X2062800Y1409000D02*
D03*
X2139000D02*
D03*
X2062800Y1282000D02*
D03*
X2139000D02*
D03*
X2062800Y1307400D02*
D03*
X2139000D02*
D03*
X2579000Y1434400D02*
D03*
X2502800Y1409000D02*
D03*
X2579000D02*
D03*
X2502800Y1282000D02*
D03*
X2579000D02*
D03*
X2502800Y1307400D02*
D03*
X2579000D02*
D03*
X3569000D02*
D03*
X3492800D02*
D03*
X3569000Y1282000D02*
D03*
X3492800D02*
D03*
X3569000Y1409000D02*
D03*
X3492800D02*
D03*
X3569000Y1434400D02*
D03*
X2029000Y1307400D02*
D03*
X1952800D02*
D03*
X2029000Y1282000D02*
D03*
X1952800D02*
D03*
X2029000Y1409000D02*
D03*
X1952800D02*
D03*
X2029000Y1434400D02*
D03*
X3129000D02*
D03*
X3052800Y1409000D02*
D03*
X3129000D02*
D03*
X3052800Y1282000D02*
D03*
X3129000D02*
D03*
X3052800Y1307400D02*
D03*
X3129000D02*
D03*
X2909192Y1434998D02*
D03*
X2832992Y1409598D02*
D03*
X2909192D02*
D03*
X2832992Y1282598D02*
D03*
X2909192D02*
D03*
X2832992Y1307998D02*
D03*
X2909192D02*
D03*
X3020191D02*
D03*
X2943991D02*
D03*
X3020191Y1282598D02*
D03*
X2943991D02*
D03*
X3020191Y1409598D02*
D03*
X2943991D02*
D03*
X3020191Y1434998D02*
D03*
X2469000Y1307000D02*
D03*
X2392800D02*
D03*
X2469000Y1281600D02*
D03*
X2392800D02*
D03*
X2469000Y1408600D02*
D03*
X2392800D02*
D03*
X2469000Y1434000D02*
D03*
D32*
X2126000Y1761000D02*
D03*
D33*
Y1701000D02*
D03*
D34*
X2077750Y1729000D02*
D03*
D35*
X2939600Y1760600D02*
D03*
X2965000Y1786000D02*
D03*
X2990400Y1811400D02*
D03*
Y1760600D02*
D03*
X2939600Y1811400D02*
D03*
D36*
X3350000Y876000D02*
D03*
X3240000D02*
D03*
X2910000D02*
D03*
X3020000D02*
D03*
X3130000D02*
D03*
X2690000D02*
D03*
X2360000D02*
D03*
X2470000D02*
D03*
X2580000D02*
D03*
X2139640D02*
D03*
X2800400D02*
D03*
X2250000D02*
D03*
X3836000Y813000D02*
D03*
X3680000Y876000D02*
D03*
X3898000Y877000D02*
D03*
X3946000Y813000D02*
D03*
X3460000Y876000D02*
D03*
X3569200D02*
D03*
X2030000D02*
D03*
X2299000Y812000D02*
D03*
X3179000D02*
D03*
X2959170D02*
D03*
X2738440D02*
D03*
X2849000D02*
D03*
X3287000D02*
D03*
X3398730D02*
D03*
X3068700D02*
D03*
X3508610D02*
D03*
X2409000D02*
D03*
X2629640D02*
D03*
X2520110D02*
D03*
X2079000D02*
D03*
X3729000D02*
D03*
X3619000D02*
D03*
X2188000D02*
D03*
X3787000Y878000D02*
D03*
D37*
X3162800Y1434400D02*
D03*
X2612800Y1434400D02*
D03*
X2174800D02*
D03*
X3712800Y1434400D02*
D03*
X3382800D02*
D03*
X3602800D02*
D03*
X3822800D02*
D03*
X3870800Y1133400D02*
D03*
X3760800D02*
D03*
X2772800D02*
D03*
X2222800D02*
D03*
X2882800D02*
D03*
X2662800D02*
D03*
X3322800D02*
D03*
X2332800D02*
D03*
X2992800D02*
D03*
X3212800D02*
D03*
X2112800D02*
D03*
X3102800D02*
D03*
X2552800D02*
D03*
X2442800D02*
D03*
X3542800D02*
D03*
X2002800Y1133000D02*
D03*
X3432800Y1133400D02*
D03*
X3652800D02*
D03*
X2283000Y1434400D02*
D03*
X2722000D02*
D03*
X3272800D02*
D03*
X2062800D02*
D03*
X2502800Y1434400D02*
D03*
X3492800D02*
D03*
X1952800Y1434400D02*
D03*
X3052800D02*
D03*
X2832992Y1434998D02*
D03*
X2943991D02*
D03*
X2392800Y1434000D02*
D03*
D38*
X2080900Y1623000D02*
D03*
D39*
X2106200D02*
D03*
X2157000D02*
D03*
X2182400D02*
D03*
X2207800D02*
D03*
D40*
X4041000Y1797000D02*
D03*
X1924000Y790000D02*
D03*
X1928000Y1798000D02*
D03*
X4042000Y791000D02*
D03*
D41*
X2501000Y1628000D02*
D03*
X2528672Y1656610D02*
D03*
M02*
